Simulation
nRows=32
nColumns=15
endheader
time  TH_x TH_y TH_z SC_y  SC_z  SC_x  AC_y  AC_z  AC_x  GH_y  GH_z  GH_yy  EL_x  PS_y
2.8725  0.000000  0.000000  0.000000  -35.454645634629806  -0.7980342132968244  -24.42282141366936  38.10393600114813  23.93095866063704  15.738570663034706  33.95579527282609  6.634242876354418  -27.05785812461777  14.040545548687582  120.000000
2.92995  0.000000  0.000000  0.000000  -35.47203427501624  -0.7152107665048888  -23.7227931316232  38.5316521493739  23.885508227055738  15.442258738940703  45.66946209843003  5.578208335704339  -35.972922030633804  14.405067694239793  120.000000
2.9874  0.000000  0.000000  0.000000  -35.56235278542957  -0.544294196420713  -22.830955715006567  38.96787271792498  23.70724101009287  15.035937239821003  60.09517259771261  5.012430431466044  -48.04357119514835  14.853762147061119  120.000000
3.0448500000000003  0.000000  0.000000  0.000000  -35.69888702395781  -0.29211003077219977  -21.799413151389512  39.37871646216083  23.403591752581786  14.543596295990495  74.78856688758631  4.900894709115107  -60.86435339039067  15.341477516921714  120.000000
3.1023  0.000000  0.000000  0.000000  -35.85444317392142  0.02403204648826481  -20.679441918738895  39.7458355614395  22.992654597708842  13.99150465951236  87.15114693102342  5.107634420310309  -71.8192953694095  15.825688126428235  120.000000
3.15975  0.000000  0.000000  0.000000  -36.0079125913832  0.3806567330515958  -19.517045108096145  40.06634088681341  22.499408558791753  13.404182410727705  96.2443765584468  5.462822458297659  -79.91326240950923  16.277025241814187  120.000000
3.2172  0.000000  0.000000  0.000000  -36.14431114508341  0.7524300452738409  -18.35312347296543  40.34978748446636  21.951579021947794  12.802250876780256  102.43281545955831  5.836339736336811  -85.43026617456653  16.685508925849057  120.000000
3.2746500000000003  0.000000  0.000000  0.000000  -36.25207511446406  1.1142406938940965  -17.222086763681848  40.611434330586235  21.374182389839312  12.2031026315223  106.41966831582326  6.155133243499523  -88.98248833442383  17.058226767463836  120.000000
3.3321  0.000000  0.000000  0.000000  -36.32219776446353  1.4435160993116645  -16.1500417098724  40.86562389629183  20.786515842279247  11.621600370080817  108.82070571789777  6.391044959209582  -91.09676563950303  17.411280005899606  120.000000
3.38955  0.000000  0.000000  0.000000  -36.35024747021988  1.7243960297564584  -15.154800665320556  41.1223695389258  20.201906193662136  11.0689342362338  110.09480578545471  6.545891202507967  -92.1570741801736  17.760619757274444  120.000000
3.447  0.000000  0.000000  0.000000  -36.33878661849369  1.9491015939346816  -14.246765228444794  41.38484104089088  19.629707248323324  10.551532592108554  110.56582001525852  6.6382931584095575  -92.43531752328329  18.11531742841529  120.000000
3.5044500000000003  0.000000  0.000000  0.000000  -36.29713664340849  2.116973776620149  -13.429823009241598  41.64889110849402  19.076878041073847  10.072321986845727  110.45957790524088  6.693176732093304  -92.1293219652727  18.477529838058445  120.000000
3.5619  0.000000  0.000000  0.000000  -36.237629085489765  2.232668653910587  -12.703096506407487  41.9050533926446  18.548468825582052  9.633209749666038  109.93638926652372  6.73527971890447  -91.38978723249637  18.84543947520729  120.000000
3.61935  0.000000  0.000000  0.000000  -36.17030517456136  2.3051720176822634  -12.064385604196364  42.142954487529074  18.049954935117732  9.23376001542989  109.10099641985711  6.784495099012539  -90.32172850039044  19.216414967643157  120.000000
3.6768  0.000000  0.000000  0.000000  -36.10032215196641  2.3469054326419845  -11.513007413051541  42.35328289953326  17.587198095302767  8.870123382233274  108.01181650296027  6.854206704786045  -88.98672184841396  19.588963356608218  120.000000
3.7342500000000003  0.000000  0.000000  0.000000  -36.02782123669952  2.36834034927301  -11.050103475180512  42.52543504015076  17.163255115998894  8.538061594014644  106.69688429051274  6.950510816975103  -87.41436699919907  19.962861257410406  120.000000
3.7917  0.000000  0.000000  0.000000  -35.94836362687634  2.374044987797534  -10.678078820079572  42.6471088121284  16.7768790210316  8.234909360734415  105.15485342161844  7.073320518097523  -85.6015453830532  20.338571119961976  120.000000
3.84915  0.000000  0.000000  0.000000  -35.85401070252551  2.363412755694876  -10.400235166385922  42.70668892601874  16.423431344575953  7.959010313622384  103.33946610710287  7.218526494363069  -83.49658239034756  20.716331467771166  120.000000
3.9066  0.000000  0.000000  0.000000  -35.734908890230926  2.3332688643437645  -10.220490598813164  42.69614988954097  16.0972436118874  7.7079843982865555  101.13981963204479  7.380771809989445  -80.9803863751766  21.09522764524171  120.000000
3.9640500000000003  0.000000  0.000000  0.000000  -35.579756095486715  2.280771591058256  -10.143390400441092  42.61372639715295  15.793000203603789  7.477986278825252  98.38108226215103  7.558816984193408  -77.86923662736456  21.472790943253987  120.000000
4.0215  0.000000  0.000000  0.000000  -35.37744004141965  2.203692704115453  -10.174140689222376  42.463159743972184  15.505671136295975  7.26494746265363  94.85880268414648  7.762700176083461  -73.95371596090965  21.845001193737467  120.000000
4.07895  0.000000  0.000000  0.000000  -35.119332768670084  2.100679836904049  -10.317900602127372  42.25171076488951  15.230013922114976  7.067086867580567  90.40683087410042  8.023287159024274  -69.07345620446014  22.205543599715  120.000000
4.1364  0.000000  0.000000  0.000000  -34.80315169406946  1.9724297964594253  -10.577301135971181  41.987753719118054  14.959893257337232  6.889162900675894  85.00603449804397  8.400927545379444  -63.23293818938779  22.5439658914543  120.000000
4.19385  0.000000  0.000000  0.000000  -34.43692127961276  1.824413459097802  -10.948659635657352  41.67679099211883  14.688970095064287  6.746239524737915  78.89973045562475  8.98062375498709  -56.71943836781839  22.843101956168674  120.000000
4.2513000000000005  0.000000  0.000000  0.000000  -34.04211755351845  1.6755865294153434  -11.419407332847292  41.32168589716413  14.413505583623758  6.66272001410299  72.59976363443559  9.850968757615583  -50.103810139870376  23.080152917739788  120.000000
4.30875  0.000000  0.000000  0.000000  -33.651488251740524  1.5693232513394066  -11.969531581013737  40.93806166474835  14.136787466265236  6.663880029099501  66.72347246384558  11.084086569855717  -44.06451744937111  23.2362331457427  120.000000
4.3662  0.000000  0.000000  0.000000  -33.3193010355208  1.564666821736622  -12.5682856670968  40.55672425098746  13.866237376925962  6.7793915121360735  61.75891445669503  12.72576800714064  -39.140032779968685  23.310947042180096  120.000000
4.42365  0.000000  0.000000  0.000000  -33.12856363248056  1.7214347695454038  -13.167187610056873  40.20529094278027  13.60413938330513  7.055844961075754  57.92324772435025  14.787788658184182  -35.57508558825103  23.333290443818946  120.000000
4.4811  0.000000  0.000000  0.000000  -33.17350396284767  2.10032850160903  -13.706367410540048  39.91709069261436  13.355265151282717  7.534747667417521  55.17118188356749  17.2537812170632  -33.331812650811024  23.3585811565692  120.000000
4.53855  0.000000  0.000000  0.000000  -33.53152072511957  2.756024573683594  -14.123915289582705  39.739540694239764  13.140484356212594  8.221872261717852  53.28405099388854  20.083092715925  -32.19288174586746  23.44700222461447  120.000000
4.596  0.000000  0.000000  0.000000  -34.235755874198695  3.7145868823730894  -14.351477244906448  39.70576399499772  12.987715363260738  9.096589004253893  51.97425086684126  23.19560375964886  -31.866799718513388  23.634625023577  120.000000
4.65345  0.000000  0.000000  0.000000  -35.26180214038317  4.958721225389922  -14.312521199314533  39.8263152805128  12.921518577218825  10.122286886112965  50.97899845458953  26.475046322458308  -32.080026628456004  23.912888667714373  120.000000
